<svg id="visual" viewBox="0 0 900 600" width="900" height="600" xmlns="http://www.w3.org/2000/svg" xmlns:xlink="http://www.w3.org/1999/xlink" version="1.1"><path d="M0 424L21.5 423C43 422 86 420 128.8 412.7C171.7 405.3 214.3 392.7 257.2 385.5C300 378.3 343 376.7 385.8 382C428.7 387.3 471.3 399.7 514.2 409.2C557 418.7 600 425.3 642.8 429.3C685.7 433.3 728.3 434.7 771.2 425.7C814 416.7 857 397.3 878.5 387.7L900 378L900 601L878.5 601C857 601 814 601 771.2 601C728.3 601 685.7 601 642.8 601C600 601 557 601 514.2 601C471.3 601 428.7 601 385.8 601C343 601 300 601 257.2 601C214.3 601 171.7 601 128.8 601C86 601 43 601 21.5 601L0 601Z" fill="#ffffff"></path><path d="M0 408L21.5 417.2C43 426.3 86 444.7 128.8 446C171.7 447.3 214.3 431.7 257.2 430C300 428.3 343 440.7 385.8 438.2C428.7 435.7 471.3 418.3 514.2 421.2C557 424 600 447 642.8 458.3C685.7 469.7 728.3 469.3 771.2 456.7C814 444 857 419 878.5 406.5L900 394L900 601L878.5 601C857 601 814 601 771.2 601C728.3 601 685.7 601 642.8 601C600 601 557 601 514.2 601C471.3 601 428.7 601 385.8 601C343 601 300 601 257.2 601C214.3 601 171.7 601 128.8 601C86 601 43 601 21.5 601L0 601Z" fill="#ffe3cd"></path><path d="M0 441L21.5 450.8C43 460.7 86 480.3 128.8 484.7C171.7 489 214.3 478 257.2 476.3C300 474.7 343 482.3 385.8 483.7C428.7 485 471.3 480 514.2 475.8C557 471.7 600 468.3 642.8 471.5C685.7 474.7 728.3 484.3 771.2 482.5C814 480.7 857 467.3 878.5 460.7L900 454L900 601L878.5 601C857 601 814 601 771.2 601C728.3 601 685.7 601 642.8 601C600 601 557 601 514.2 601C471.3 601 428.7 601 385.8 601C343 601 300 601 257.2 601C214.3 601 171.7 601 128.8 601C86 601 43 601 21.5 601L0 601Z" fill="#ffc89d"></path><path d="M0 537L21.5 536.7C43 536.3 86 535.7 128.8 533.5C171.7 531.3 214.3 527.7 257.2 525C300 522.3 343 520.7 385.8 516.7C428.7 512.7 471.3 506.3 514.2 503.2C557 500 600 500 642.8 500.8C685.7 501.7 728.3 503.3 771.2 509.2C814 515 857 525 878.5 530L900 535L900 601L878.5 601C857 601 814 601 771.2 601C728.3 601 685.7 601 642.8 601C600 601 557 601 514.2 601C471.3 601 428.7 601 385.8 601C343 601 300 601 257.2 601C214.3 601 171.7 601 128.8 601C86 601 43 601 21.5 601L0 601Z" fill="#fead6d"></path><path d="M0 528L21.5 529C43 530 86 532 128.8 532.2C171.7 532.3 214.3 530.7 257.2 534.2C300 537.7 343 546.3 385.8 547.3C428.7 548.3 471.3 541.7 514.2 540.7C557 539.7 600 544.3 642.8 548.8C685.7 553.3 728.3 557.7 771.2 557.8C814 558 857 554 878.5 552L900 550L900 601L878.5 601C857 601 814 601 771.2 601C728.3 601 685.7 601 642.8 601C600 601 557 601 514.2 601C471.3 601 428.7 601 385.8 601C343 601 300 601 257.2 601C214.3 601 171.7 601 128.8 601C86 601 43 601 21.5 601L0 601Z" fill="#fb923c"></path></svg>