<svg id="visual" viewBox="0 0 900 200" width="900" height="200" xmlns="http://www.w3.org/2000/svg" xmlns:xlink="http://www.w3.org/1999/xlink" version="1.1"><rect x="0" y="0" width="900" height="200" fill="#fff"></rect><path d="M0 123L16.7 125.3C33.3 127.7 66.7 132.3 100 135.5C133.3 138.7 166.7 140.3 200 143.3C233.3 146.3 266.7 150.7 300 144.7C333.3 138.7 366.7 122.3 400 116.7C433.3 111 466.7 116 500 115.2C533.3 114.3 566.7 107.7 600 106.3C633.3 105 666.7 109 700 109.8C733.3 110.7 766.7 108.3 800 106.5C833.3 104.7 866.7 103.3 883.3 102.7L900 102L900 0L883.3 0C866.7 0 833.3 0 800 0C766.7 0 733.3 0 700 0C666.7 0 633.3 0 600 0C566.7 0 533.3 0 500 0C466.7 0 433.3 0 400 0C366.7 0 333.3 0 300 0C266.7 0 233.3 0 200 0C166.7 0 133.3 0 100 0C66.7 0 33.3 0 16.7 0L0 0Z" fill="#ffffff"></path><path d="M0 109L16.7 105.7C33.3 102.3 66.7 95.7 100 97.5C133.3 99.3 166.7 109.7 200 111.2C233.3 112.7 266.7 105.3 300 103C333.3 100.7 366.7 103.3 400 101.5C433.3 99.7 466.7 93.3 500 87.8C533.3 82.3 566.7 77.7 600 84.7C633.3 91.7 666.7 110.3 700 117.7C733.3 125 766.7 121 800 114.5C833.3 108 866.7 99 883.3 94.5L900 90L900 0L883.3 0C866.7 0 833.3 0 800 0C766.7 0 733.3 0 700 0C666.7 0 633.3 0 600 0C566.7 0 533.3 0 500 0C466.7 0 433.3 0 400 0C366.7 0 333.3 0 300 0C266.7 0 233.3 0 200 0C166.7 0 133.3 0 100 0C66.7 0 33.3 0 16.7 0L0 0Z" fill="#ffe9d7"></path><path d="M0 62L16.7 62.5C33.3 63 66.7 64 100 69.3C133.3 74.7 166.7 84.3 200 84.2C233.3 84 266.7 74 300 72.3C333.3 70.7 366.7 77.3 400 79.2C433.3 81 466.7 78 500 84C533.3 90 566.7 105 600 103.3C633.3 101.7 666.7 83.3 700 76C733.3 68.7 766.7 72.3 800 70.7C833.3 69 866.7 62 883.3 58.5L900 55L900 0L883.3 0C866.7 0 833.3 0 800 0C766.7 0 733.3 0 700 0C666.7 0 633.3 0 600 0C566.7 0 533.3 0 500 0C466.7 0 433.3 0 400 0C366.7 0 333.3 0 300 0C266.7 0 233.3 0 200 0C166.7 0 133.3 0 100 0C66.7 0 33.3 0 16.7 0L0 0Z" fill="#ffd3b0"></path><path d="M0 54L16.7 58.2C33.3 62.3 66.7 70.7 100 71.2C133.3 71.7 166.7 64.3 200 58.5C233.3 52.7 266.7 48.3 300 54.2C333.3 60 366.7 76 400 80.3C433.3 84.7 466.7 77.3 500 71.2C533.3 65 566.7 60 600 57.5C633.3 55 666.7 55 700 57.3C733.3 59.7 766.7 64.3 800 67.5C833.3 70.7 866.7 72.3 883.3 73.2L900 74L900 0L883.3 0C866.7 0 833.3 0 800 0C766.7 0 733.3 0 700 0C666.7 0 633.3 0 600 0C566.7 0 533.3 0 500 0C466.7 0 433.3 0 400 0C366.7 0 333.3 0 300 0C266.7 0 233.3 0 200 0C166.7 0 133.3 0 100 0C66.7 0 33.3 0 16.7 0L0 0Z" fill="#ffbd8a"></path><path d="M0 44L16.7 44C33.3 44 66.7 44 100 41.8C133.3 39.7 166.7 35.3 200 32.8C233.3 30.3 266.7 29.7 300 33.7C333.3 37.7 366.7 46.3 400 45.8C433.3 45.3 466.7 35.7 500 31.5C533.3 27.3 566.7 28.7 600 28.7C633.3 28.7 666.7 27.3 700 31.7C733.3 36 766.7 46 800 46.8C833.3 47.7 866.7 39.3 883.3 35.2L900 31L900 0L883.3 0C866.7 0 833.3 0 800 0C766.7 0 733.3 0 700 0C666.7 0 633.3 0 600 0C566.7 0 533.3 0 500 0C466.7 0 433.3 0 400 0C366.7 0 333.3 0 300 0C266.7 0 233.3 0 200 0C166.7 0 133.3 0 100 0C66.7 0 33.3 0 16.7 0L0 0Z" fill="#fea863"></path><path d="M0 41L16.7 39.5C33.3 38 66.7 35 100 31.7C133.3 28.3 166.7 24.7 200 26.3C233.3 28 266.7 35 300 33.5C333.3 32 366.7 22 400 20C433.3 18 466.7 24 500 24.7C533.3 25.3 566.7 20.7 600 20.8C633.3 21 666.7 26 700 27.7C733.3 29.3 766.7 27.7 800 24.8C833.3 22 866.7 18 883.3 16L900 14L900 0L883.3 0C866.7 0 833.3 0 800 0C766.7 0 733.3 0 700 0C666.7 0 633.3 0 600 0C566.7 0 533.3 0 500 0C466.7 0 433.3 0 400 0C366.7 0 333.3 0 300 0C266.7 0 233.3 0 200 0C166.7 0 133.3 0 100 0C66.7 0 33.3 0 16.7 0L0 0Z" fill="#fb923c"></path></svg>