<svg id="visual" viewBox="0 0 900 200" width="900" height="200" xmlns="http://www.w3.org/2000/svg" xmlns:xlink="http://www.w3.org/1999/xlink" version="1.1"><path d="M0 158L13.7 152.7C27.3 147.3 54.7 136.7 82 132C109.3 127.3 136.7 128.7 163.8 130.7C191 132.7 218 135.3 245.2 137.3C272.3 139.3 299.7 140.7 327 136.3C354.3 132 381.7 122 409 121C436.3 120 463.7 128 491 127C518.3 126 545.7 116 573 119.7C600.3 123.3 627.7 140.7 654.8 143.7C682 146.7 709 135.3 736.2 129C763.3 122.7 790.7 121.3 818 120C845.3 118.7 872.7 117.3 886.3 116.7L900 116L900 0L886.3 0C872.7 0 845.3 0 818 0C790.7 0 763.3 0 736.2 0C709 0 682 0 654.8 0C627.7 0 600.3 0 573 0C545.7 0 518.3 0 491 0C463.7 0 436.3 0 409 0C381.7 0 354.3 0 327 0C299.7 0 272.3 0 245.2 0C218 0 191 0 163.8 0C136.7 0 109.3 0 82 0C54.7 0 27.3 0 13.7 0L0 0Z" fill="#ffffff"></path><path d="M0 90L13.7 92.3C27.3 94.7 54.7 99.3 82 104.8C109.3 110.3 136.7 116.7 163.8 116.3C191 116 218 109 245.2 102.8C272.3 96.7 299.7 91.3 327 93.3C354.3 95.3 381.7 104.7 409 105.3C436.3 106 463.7 98 491 93.8C518.3 89.7 545.7 89.3 573 92.2C600.3 95 627.7 101 654.8 107.2C682 113.3 709 119.7 736.2 119.2C763.3 118.7 790.7 111.3 818 108C845.3 104.7 872.7 105.3 886.3 105.7L900 106L900 0L886.3 0C872.7 0 845.3 0 818 0C790.7 0 763.3 0 736.2 0C709 0 682 0 654.8 0C627.7 0 600.3 0 573 0C545.7 0 518.3 0 491 0C463.7 0 436.3 0 409 0C381.7 0 354.3 0 327 0C299.7 0 272.3 0 245.2 0C218 0 191 0 163.8 0C136.7 0 109.3 0 82 0C54.7 0 27.3 0 13.7 0L0 0Z" fill="#ffe3cd"></path><path d="M0 78L13.7 80.2C27.3 82.3 54.7 86.7 82 86.8C109.3 87 136.7 83 163.8 83.5C191 84 218 89 245.2 92.5C272.3 96 299.7 98 327 95.7C354.3 93.3 381.7 86.7 409 85.3C436.3 84 463.7 88 491 88.2C518.3 88.3 545.7 84.7 573 83.7C600.3 82.7 627.7 84.3 654.8 83.5C682 82.7 709 79.3 736.2 80.3C763.3 81.3 790.7 86.7 818 88.5C845.3 90.3 872.7 88.7 886.3 87.8L900 87L900 0L886.3 0C872.7 0 845.3 0 818 0C790.7 0 763.3 0 736.2 0C709 0 682 0 654.8 0C627.7 0 600.3 0 573 0C545.7 0 518.3 0 491 0C463.7 0 436.3 0 409 0C381.7 0 354.3 0 327 0C299.7 0 272.3 0 245.2 0C218 0 191 0 163.8 0C136.7 0 109.3 0 82 0C54.7 0 27.3 0 13.7 0L0 0Z" fill="#ffc89d"></path><path d="M0 64L13.7 65.3C27.3 66.7 54.7 69.3 82 69.5C109.3 69.7 136.7 67.3 163.8 66.3C191 65.3 218 65.7 245.2 62.3C272.3 59 299.7 52 327 51.5C354.3 51 381.7 57 409 58.7C436.3 60.3 463.7 57.7 491 59.2C518.3 60.7 545.7 66.3 573 69.2C600.3 72 627.7 72 654.8 70.3C682 68.7 709 65.3 736.2 60.5C763.3 55.7 790.7 49.3 818 49.7C845.3 50 872.7 57 886.3 60.5L900 64L900 0L886.3 0C872.7 0 845.3 0 818 0C790.7 0 763.3 0 736.2 0C709 0 682 0 654.8 0C627.7 0 600.3 0 573 0C545.7 0 518.3 0 491 0C463.7 0 436.3 0 409 0C381.7 0 354.3 0 327 0C299.7 0 272.3 0 245.2 0C218 0 191 0 163.8 0C136.7 0 109.3 0 82 0C54.7 0 27.3 0 13.7 0L0 0Z" fill="#fead6d"></path><path d="M0 28L13.7 28.3C27.3 28.7 54.7 29.3 82 31.8C109.3 34.3 136.7 38.7 163.8 39.3C191 40 218 37 245.2 36C272.3 35 299.7 36 327 33.7C354.3 31.3 381.7 25.7 409 25.7C436.3 25.7 463.7 31.3 491 35.3C518.3 39.3 545.7 41.7 573 42.3C600.3 43 627.7 42 654.8 39.8C682 37.7 709 34.3 736.2 32.5C763.3 30.7 790.7 30.3 818 31.3C845.3 32.3 872.7 34.7 886.3 35.8L900 37L900 0L886.3 0C872.7 0 845.3 0 818 0C790.7 0 763.3 0 736.2 0C709 0 682 0 654.8 0C627.7 0 600.3 0 573 0C545.7 0 518.3 0 491 0C463.7 0 436.3 0 409 0C381.7 0 354.3 0 327 0C299.7 0 272.3 0 245.2 0C218 0 191 0 163.8 0C136.7 0 109.3 0 82 0C54.7 0 27.3 0 13.7 0L0 0Z" fill="#fb923c"></path></svg>