<svg id="visual" viewBox="0 0 900 200" width="900" height="200" xmlns="http://www.w3.org/2000/svg" xmlns:xlink="http://www.w3.org/1999/xlink" version="1.1"><path d="M0 74L16.7 71.8C33.3 69.7 66.7 65.3 100 69.3C133.3 73.3 166.7 85.7 200 85C233.3 84.3 266.7 70.7 300 67.7C333.3 64.7 366.7 72.3 400 77C433.3 81.7 466.7 83.3 500 77.3C533.3 71.3 566.7 57.7 600 60.5C633.3 63.3 666.7 82.7 700 91.3C733.3 100 766.7 98 800 87.2C833.3 76.3 866.7 56.7 883.3 46.8L900 37L900 201L883.3 201C866.7 201 833.3 201 800 201C766.7 201 733.3 201 700 201C666.7 201 633.3 201 600 201C566.7 201 533.3 201 500 201C466.7 201 433.3 201 400 201C366.7 201 333.3 201 300 201C266.7 201 233.3 201 200 201C166.7 201 133.3 201 100 201C66.7 201 33.3 201 16.7 201L0 201Z" fill="#ffffff"></path><path d="M0 102L16.7 106.3C33.3 110.7 66.7 119.3 100 124.2C133.3 129 166.7 130 200 129.5C233.3 129 266.7 127 300 115.7C333.3 104.3 366.7 83.7 400 83.2C433.3 82.7 466.7 102.3 500 108.3C533.3 114.3 566.7 106.7 600 101C633.3 95.3 666.7 91.7 700 85.8C733.3 80 766.7 72 800 68.8C833.3 65.7 866.7 67.3 883.3 68.2L900 69L900 201L883.3 201C866.7 201 833.3 201 800 201C766.7 201 733.3 201 700 201C666.7 201 633.3 201 600 201C566.7 201 533.3 201 500 201C466.7 201 433.3 201 400 201C366.7 201 333.3 201 300 201C266.7 201 233.3 201 200 201C166.7 201 133.3 201 100 201C66.7 201 33.3 201 16.7 201L0 201Z" fill="#ffe3cd"></path><path d="M0 116L16.7 115.5C33.3 115 66.7 114 100 118.7C133.3 123.3 166.7 133.7 200 138.8C233.3 144 266.7 144 300 137.2C333.3 130.3 366.7 116.7 400 114.8C433.3 113 466.7 123 500 129.8C533.3 136.7 566.7 140.3 600 140.7C633.3 141 666.7 138 700 136.8C733.3 135.7 766.7 136.3 800 131C833.3 125.7 866.7 114.3 883.3 108.7L900 103L900 201L883.3 201C866.7 201 833.3 201 800 201C766.7 201 733.3 201 700 201C666.7 201 633.3 201 600 201C566.7 201 533.3 201 500 201C466.7 201 433.3 201 400 201C366.7 201 333.3 201 300 201C266.7 201 233.3 201 200 201C166.7 201 133.3 201 100 201C66.7 201 33.3 201 16.7 201L0 201Z" fill="#ffc89d"></path><path d="M0 143L16.7 145C33.3 147 66.7 151 100 149.7C133.3 148.3 166.7 141.7 200 136.7C233.3 131.7 266.7 128.3 300 128.2C333.3 128 366.7 131 400 133.8C433.3 136.7 466.7 139.3 500 144.3C533.3 149.3 566.7 156.7 600 152.7C633.3 148.7 666.7 133.3 700 129C733.3 124.7 766.7 131.3 800 139.2C833.3 147 866.7 156 883.3 160.5L900 165L900 201L883.3 201C866.7 201 833.3 201 800 201C766.7 201 733.3 201 700 201C666.7 201 633.3 201 600 201C566.7 201 533.3 201 500 201C466.7 201 433.3 201 400 201C366.7 201 333.3 201 300 201C266.7 201 233.3 201 200 201C166.7 201 133.3 201 100 201C66.7 201 33.3 201 16.7 201L0 201Z" fill="#fead6d"></path><path d="M0 159L16.7 157.5C33.3 156 66.7 153 100 157.2C133.3 161.3 166.7 172.7 200 178C233.3 183.3 266.7 182.7 300 181.2C333.3 179.7 366.7 177.3 400 174.7C433.3 172 466.7 169 500 164.8C533.3 160.7 566.7 155.3 600 158.2C633.3 161 666.7 172 700 177.2C733.3 182.3 766.7 181.7 800 180.2C833.3 178.7 866.7 176.3 883.3 175.2L900 174L900 201L883.3 201C866.7 201 833.3 201 800 201C766.7 201 733.3 201 700 201C666.7 201 633.3 201 600 201C566.7 201 533.3 201 500 201C466.7 201 433.3 201 400 201C366.7 201 333.3 201 300 201C266.7 201 233.3 201 200 201C166.7 201 133.3 201 100 201C66.7 201 33.3 201 16.7 201L0 201Z" fill="#fb923c"></path></svg>